<?xml version="1.0" encoding="UTF-8"?>
<svg width="166px" height="13px" viewBox="0 0 166 13" version="1.1" xmlns="http://www.w3.org/2000/svg" xmlns:xlink="http://www.w3.org/1999/xlink">
    <title>LABOITEDUSANTON</title>
    <g id="Design-Web" stroke="none" stroke-width="1" fill="none" fill-rule="evenodd">
        <g id="Landing-Page" transform="translate(-34.000000, -20.000000)" fill="#FFFFFF" fill-rule="nonzero">
            <path d="M41.748,32 L41.748,30.976 L35.476,30.976 L35.476,20.8 L34.292,20.8 L34.292,32 L41.748,32 Z M43.156,32 L44.5,29.008 L50.74,29.008 L52.084,32 L53.332,32 L48.212,20.8 L47.044,20.8 L41.924,32 L43.156,32 Z M50.308,28.048 L44.932,28.048 L47.62,22.032 L50.308,28.048 Z M60.34,32 C63.14,32 64.548,30.912 64.548,29.008 C64.548,27.488 63.684,26.544 62.244,26.224 C63.268,25.808 63.956,24.96 63.956,23.68 C63.956,21.856 62.516,20.8 60.02,20.8 L55.188,20.8 L55.188,32 L60.34,32 Z M59.94,25.84 L56.372,25.84 L56.372,21.776 L59.94,21.776 C61.732,21.776 62.772,22.464 62.772,23.808 C62.772,25.152 61.732,25.84 59.94,25.84 Z M60.324,31.024 L56.372,31.024 L56.372,26.816 L60.324,26.816 C62.292,26.816 63.364,27.456 63.364,28.912 C63.364,30.384 62.292,31.024 60.324,31.024 Z M72.148,32.096 C75.508,32.096 78.02,29.68 78.02,26.4 C78.02,23.12 75.508,20.704 72.148,20.704 C68.756,20.704 66.26,23.136 66.26,26.4 C66.26,29.664 68.756,32.096 72.148,32.096 Z M72.148,31.04 C69.444,31.04 67.428,29.072 67.428,26.4 C67.428,23.728 69.444,21.76 72.148,21.76 C74.836,21.76 76.836,23.728 76.836,26.4 C76.836,29.072 74.836,31.04 72.148,31.04 Z M81.86,32 L81.86,20.8 L80.676,20.8 L80.676,32 L81.86,32 Z M88.868,32 L88.868,21.824 L92.804,21.824 L92.804,20.8 L83.748,20.8 L83.748,21.824 L87.684,21.824 L87.684,32 L88.868,32 Z M102.612,32 L102.612,30.976 L95.876,30.976 L95.876,26.816 L101.668,26.816 L101.668,25.808 L95.876,25.808 L95.876,21.824 L102.372,21.824 L102.372,20.8 L94.692,20.8 L94.692,32 L102.612,32 Z M109.956,32 C113.54,32 115.956,29.696 115.956,26.4 C115.956,23.104 113.54,20.8 109.956,20.8 L105.396,20.8 L105.396,32 L109.956,32 Z M109.892,30.976 L106.58,30.976 L106.58,21.824 L109.892,21.824 C112.868,21.824 114.788,23.712 114.788,26.4 C114.788,29.088 112.868,30.976 109.892,30.976 Z M123.124,32.096 C125.988,32.096 127.716,30.432 127.716,27.216 L127.716,20.8 L126.564,20.8 L126.564,27.168 C126.564,29.824 125.316,31.04 123.124,31.04 C120.948,31.04 119.7,29.824 119.7,27.168 L119.7,20.8 L118.516,20.8 L118.516,27.216 C118.516,30.432 120.26,32.096 123.124,32.096 Z M134.436,32.16 C137.508,32.16 138.964,30.624 138.964,28.832 C138.964,24.72 132.324,26.272 132.324,23.888 C132.324,23.04 133.028,22.368 134.756,22.368 C135.732,22.368 136.836,22.656 137.844,23.248 L138.5,21.632 C137.524,20.992 136.116,20.64 134.772,20.64 C131.7,20.64 130.26,22.176 130.26,23.984 C130.26,28.144 136.916,26.56 136.916,28.976 C136.916,29.808 136.18,30.432 134.436,30.432 C133.06,30.432 131.636,29.92 130.74,29.2 L130.02,30.816 C130.948,31.616 132.692,32.16 134.436,32.16 Z M141.588,32 L142.692,29.408 L148.292,29.408 L149.412,32 L151.588,32 L146.532,20.8 L144.484,20.8 L139.444,32 L141.588,32 Z M147.604,27.776 L143.396,27.776 L145.492,22.88 L147.604,27.776 Z M155.076,32 L155.076,24.416 L161.252,32 L162.964,32 L162.964,20.8 L160.9,20.8 L160.9,28.384 L154.724,20.8 L153.012,20.8 L153.012,32 L155.076,32 Z M170.324,32 L170.324,22.56 L174.036,22.56 L174.036,20.8 L164.532,20.8 L164.532,22.56 L168.244,22.56 L168.244,32 L170.324,32 Z M180.836,32.16 C184.308,32.16 186.868,29.728 186.868,26.4 C186.868,23.072 184.308,20.64 180.836,20.64 C177.364,20.64 174.804,23.088 174.804,26.4 C174.804,29.712 177.364,32.16 180.836,32.16 Z M180.836,30.336 C178.58,30.336 176.9,28.688 176.9,26.4 C176.9,24.112 178.58,22.464 180.836,22.464 C183.092,22.464 184.772,24.112 184.772,26.4 C184.772,28.688 183.092,30.336 180.836,30.336 Z M191.14,32 L191.14,24.416 L197.316,32 L199.028,32 L199.028,20.8 L196.964,20.8 L196.964,28.384 L190.788,20.8 L189.076,20.8 L189.076,32 L191.14,32 Z" id="LABOITEDUSANTON"></path>
        </g>
    </g>
</svg>